# xmcd
#
# Track frame offsets:
#	150
#	2606
#	20418
#	24738
#	40603
#	54319
#	73634
#	87757
#	103452
#	114601
#	115325
#	126233
#	134877
#	146742
#	156165
#	164128
#	172761
#	187876
#	204039
#	217860
#	218967
#	232097
#	239401
#	240195
#	254071
#	266793
#	267387
#	286673
#	294806
#	295959
#	311079
#	312820
#	330991
#	350188
#
# Disc length: 4674 seconds
#
# Revision: 0
# Processed by: cddbd v1.4PL0 Copyright (c) Steve Scherf et al.
# Submitted via: EasyCDDAExtractor 4.6.9.1
#
DISCID=03124022
DTITLE=ADG - Back To The Block (Hustlin)
DYEAR=2002
DGENRE=Hip Hop
TTITLE0=Intro
TTITLE1=Till I Collapse - Eminem and Nate Dogg
TTITLE2=Interlude
TTITLE3=Welcome To NY - Camron and Jay Z
TTITLE4=Bitches Go Down - Joe Buddens
TTITLE5=Nothin - Noreaga and The Neptunes
TTITLE6=Cockaroaches - Cash
TTITLE7=Hold Up - Onyx and Havoc
TTITLE8=Bump That - Havoc
TTITLE9=Skit
TTITLE10=10 Million Stars - LL Cool J
TTITLE11=You Goin Down - Heather B
TTITLE12=Stylin - Foxy Brown
TTITLE13=Honey - R.Kelly and Jay Z
TTITLE14=Say What You Say - Dr. Dre and Eminem
TTITLE15=Why Must I - State Property
TTITLE16=The Life - Styles and Pharoah Monch
TTITLE17=Boy Boy - Camron
TTITLE18=Holla - Cash
TTITLE19=Skit
TTITLE20=Masquerade - Wyclef, M.O.P. and Freddie Foxxx
TTITLE21=Big Business - Jadakiss and Ron Isley
TTITLE22=Skit
TTITLE23=I Get High - Styles
TTITLE24=The Essence - AZ and Nas
TTITLE25=Skit
TTITLE26=Down 4 U - Murder Inc
TTITLE27=Take That - Nature
TTITLE28=Skit
TTITLE29=The Block - Scarface
TTITLE30=Skit
TTITLE31=Cleaning Out MY Closet (I'm Sorry Momma) - Eminem
TTITLE32=Dressed To Kill - Kool G Rap
TTITLE33=Outro
EXTD=
EXTT0=
EXTT1=
EXTT2=
EXTT3=
EXTT4=
EXTT5=
EXTT6=
EXTT7=
EXTT8=
EXTT9=
EXTT10=
EXTT11=
EXTT12=
EXTT13=
EXTT14=
EXTT15=
EXTT16=
EXTT17=
EXTT18=
EXTT19=
EXTT20=
EXTT21=
EXTT22=
EXTT23=
EXTT24=
EXTT25=
EXTT26=
EXTT27=
EXTT28=
EXTT29=
EXTT30=
EXTT31=
EXTT32=
EXTT33=
PLAYORDER=
